<?xml version="1.0" encoding="UTF-8" standalone="no"?>
<!DOCTYPE svg PUBLIC "-//W3C//DTD SVG 1.1//EN"
 "http://www.w3.org/Graphics/SVG/1.1/DTD/svg11.dtd">
<!-- Generated by graphviz version 2.40.1 (20161225.0304)
 -->
<!-- Title: DFA Pages: 1 -->
<svg width="493pt" height="246pt"
 viewBox="0.00 0.00 493.28 246.00" xmlns="http://www.w3.org/2000/svg" xmlns:xlink="http://www.w3.org/1999/xlink">
<g id="graph0" class="graph" transform="scale(1 1) rotate(0) translate(4 242)">
<title>DFA</title>
<polygon fill="#ffffff" stroke="transparent" points="-4,4 -4,-242 489.2849,-242 489.2849,4 -4,4"/>
<!--   -->
<g id="node1" class="node">
<title> </title>
<text text-anchor="middle" x="27" y="-80.3" font-family="Times,serif" font-size="14.00" fill="#000000"> </text>
</g>
<!-- q0 -->
<g id="node2" class="node">
<title>q0</title>
<ellipse fill="none" stroke="#000000" cx="114.4983" cy="-84" rx="19.4968" ry="19.4968"/>
<ellipse fill="none" stroke="#000000" cx="114.4983" cy="-84" rx="23.4965" ry="23.4965"/>
<text text-anchor="middle" x="114.4983" y="-80.3" font-family="Times,serif" font-size="14.00" fill="#000000">q0</text>
</g>
<!--  &#45;&gt;q0 -->
<g id="edge1" class="edge">
<title> &#45;&gt;q0</title>
<path fill="none" stroke="#000000" d="M54.2054,-84C62.5511,-84 71.8387,-84 80.5751,-84"/>
<polygon fill="#000000" stroke="#000000" points="80.8578,-87.5001 90.8578,-84 80.8578,-80.5001 80.8578,-87.5001"/>
</g>
<!-- q1 -->
<g id="node4" class="node">
<title>q1</title>
<ellipse fill="none" stroke="#000000" cx="200.4948" cy="-130" rx="19.4965" ry="19.4965"/>
<text text-anchor="middle" x="200.4948" y="-126.3" font-family="Times,serif" font-size="14.00" fill="#000000">q1</text>
</g>
<!-- q0&#45;&gt;q1 -->
<g id="edge2" class="edge">
<title>q0&#45;&gt;q1</title>
<path fill="none" stroke="#000000" d="M124.7408,-105.4303C131.7227,-117.3878 142.2086,-131.2068 155.9965,-138 161.1013,-140.5151 166.8836,-140.964 172.5503,-140.3152"/>
<polygon fill="#000000" stroke="#000000" points="173.4211,-143.7079 182.4542,-138.1714 171.94,-136.8664 173.4211,-143.7079"/>
<text text-anchor="middle" x="159.4965" y="-143.8" font-family="Times,serif" font-size="14.00" fill="#000000">a</text>
</g>
<!-- q0&#45;&gt;q1 -->
<g id="edge3" class="edge">
<title>q0&#45;&gt;q1</title>
<path fill="none" stroke="#000000" d="M135.3156,-95.1353C146.9615,-101.3647 161.5967,-109.1932 174.0472,-115.853"/>
<polygon fill="#000000" stroke="#000000" points="172.5879,-119.0417 183.0565,-120.6722 175.8896,-112.8692 172.5879,-119.0417"/>
<text text-anchor="middle" x="159.4965" y="-113.8" font-family="Times,serif" font-size="14.00" fill="#000000">b</text>
</g>
<!-- q2 -->
<g id="node5" class="node">
<title>q2</title>
<ellipse fill="none" stroke="#000000" cx="465.7866" cy="-120" rx="19.4965" ry="19.4965"/>
<text text-anchor="middle" x="465.7866" y="-116.3" font-family="Times,serif" font-size="14.00" fill="#000000">q2</text>
</g>
<!-- q0&#45;&gt;q2 -->
<g id="edge4" class="edge">
<title>q0&#45;&gt;q2</title>
<path fill="none" stroke="#000000" d="M134.5221,-71.5241C151.4445,-62.1791 176.6675,-51 200.4948,-51 200.4948,-51 200.4948,-51 372.6407,-51 403.7712,-51 431.2897,-76.193 448.195,-96.1333"/>
<polygon fill="#000000" stroke="#000000" points="445.5477,-98.4259 454.5598,-103.9966 450.9887,-94.0217 445.5477,-98.4259"/>
<text text-anchor="middle" x="280.9931" y="-54.8" font-family="Times,serif" font-size="14.00" fill="#000000">c</text>
</g>
<!-- final -->
<g id="node3" class="node">
<title>final</title>
<ellipse fill="none" stroke="#000000" cx="372.6407" cy="-150" rx="26.7766" ry="26.7766"/>
<ellipse fill="none" stroke="#000000" cx="372.6407" cy="-150" rx="30.796" ry="30.796"/>
<text text-anchor="middle" x="372.6407" y="-146.3" font-family="Times,serif" font-size="14.00" fill="#000000">final</text>
</g>
<!-- final&#45;&gt;q2 -->
<g id="edge13" class="edge">
<title>final&#45;&gt;q2</title>
<path fill="none" stroke="#000000" d="M401.8571,-140.5901C413.2129,-136.9327 426.1753,-132.7578 437.446,-129.1278"/>
<polygon fill="#000000" stroke="#000000" points="438.781,-132.375 447.2264,-125.9778 436.6349,-125.712 438.781,-132.375"/>
<text text-anchor="middle" x="424.7884" y="-137.8" font-family="Times,serif" font-size="14.00" fill="#000000">a</text>
</g>
<!-- q1&#45;&gt;q0 -->
<g id="edge6" class="edge">
<title>q1&#45;&gt;q0</title>
<path fill="none" stroke="#000000" d="M190.1453,-113.1839C183.5706,-104.0785 174.1961,-93.5785 162.9965,-88 158.5065,-85.7635 153.4903,-84.3492 148.4336,-83.4962"/>
<polygon fill="#000000" stroke="#000000" points="148.4559,-79.9804 138.1528,-82.4496 147.7469,-86.9444 148.4559,-79.9804"/>
<text text-anchor="middle" x="159.4965" y="-91.8" font-family="Times,serif" font-size="14.00" fill="#000000">b</text>
</g>
<!-- q1&#45;&gt;q2 -->
<g id="edge5" class="edge">
<title>q1&#45;&gt;q2</title>
<path fill="none" stroke="#000000" d="M212.0769,-146.0749C223.4404,-160.6897 242.0719,-181.7829 262.9931,-194 317.4379,-225.7936 345.2788,-239.6973 403.2884,-215 430.9437,-203.2259 447.8099,-171.855 456.9385,-148.3614"/>
<polygon fill="#000000" stroke="#000000" points="460.267,-149.4492 460.3859,-138.855 453.6863,-147.0627 460.267,-149.4492"/>
<text text-anchor="middle" x="320.4931" y="-226.8" font-family="Times,serif" font-size="14.00" fill="#000000">a</text>
</g>
<!-- * -->
<g id="node6" class="node">
<title>*</title>
<ellipse fill="none" stroke="#000000" cx="280.9931" cy="-167" rx="18" ry="18"/>
<text text-anchor="middle" x="280.9931" y="-163.3" font-family="Times,serif" font-size="14.00" fill="#000000">*</text>
</g>
<!-- q1&#45;&gt;* -->
<g id="edge7" class="edge">
<title>q1&#45;&gt;*</title>
<path fill="none" stroke="#000000" d="M218.36,-138.2115C229.2515,-143.2177 243.3495,-149.6976 255.4115,-155.2417"/>
<polygon fill="#000000" stroke="#000000" points="254.0004,-158.4451 264.5483,-159.4414 256.9239,-152.0848 254.0004,-158.4451"/>
<text text-anchor="middle" x="241.4931" y="-152.8" font-family="Times,serif" font-size="14.00" fill="#000000">c</text>
</g>
<!-- q2&#45;&gt;q0 -->
<g id="edge9" class="edge">
<title>q2&#45;&gt;q0</title>
<path fill="none" stroke="#000000" d="M460.6455,-100.9856C450.2122,-67.1489 423.145,0 372.6407,0 200.4948,0 200.4948,0 200.4948,0 168.8491,0 144.5217,-29.4689 129.9452,-53.4977"/>
<polygon fill="#000000" stroke="#000000" points="126.795,-51.9548 124.8411,-62.3679 132.8622,-55.446 126.795,-51.9548"/>
<text text-anchor="middle" x="280.9931" y="-3.8" font-family="Times,serif" font-size="14.00" fill="#000000">b</text>
</g>
<!-- q2&#45;&gt;q1 -->
<g id="edge8" class="edge">
<title>q2&#45;&gt;q1</title>
<path fill="none" stroke="#000000" d="M446.4571,-116.0949C434.157,-113.812 417.857,-111.1582 403.2884,-110 341.4245,-105.082 269.124,-116.2945 229.7366,-123.8406"/>
<polygon fill="#000000" stroke="#000000" points="228.8994,-120.4383 219.7664,-125.8085 230.2549,-127.3058 228.8994,-120.4383"/>
<text text-anchor="middle" x="320.4931" y="-114.8" font-family="Times,serif" font-size="14.00" fill="#000000">a</text>
</g>
<!-- q2&#45;&gt;* -->
<g id="edge10" class="edge">
<title>q2&#45;&gt;*</title>
<path fill="none" stroke="#000000" d="M456.2446,-137.3364C445.7755,-154.358 427.2279,-179.2811 403.2884,-190 371.7815,-204.1071 331.9606,-191.6428 306.4794,-180.2816"/>
<polygon fill="#000000" stroke="#000000" points="307.6808,-176.9786 297.1431,-175.8803 304.6959,-183.3103 307.6808,-176.9786"/>
<text text-anchor="middle" x="372.6407" y="-199.8" font-family="Times,serif" font-size="14.00" fill="#000000">c</text>
</g>
<!-- *&#45;&gt;final -->
<g id="edge11" class="edge">
<title>*&#45;&gt;final</title>
<path fill="none" stroke="#000000" d="M299.0997,-163.6413C308.6216,-161.8751 320.7011,-159.6344 332.3044,-157.4821"/>
<polygon fill="#000000" stroke="#000000" points="333.1084,-160.8928 342.3024,-155.6276 331.8317,-154.0102 333.1084,-160.8928"/>
<text text-anchor="middle" x="320.4931" y="-163.8" font-family="Times,serif" font-size="14.00" fill="#000000">a</text>
</g>
<!-- *&#45;&gt;final -->
<g id="edge12" class="edge">
<title>*&#45;&gt;final</title>
<path fill="none" stroke="#000000" d="M293.8031,-154.1784C300.198,-148.6782 308.3956,-142.8658 316.9931,-140 322.2893,-138.2346 327.979,-137.7472 333.6257,-138.0571"/>
<polygon fill="#000000" stroke="#000000" points="333.2792,-141.5415 343.6495,-139.3721 334.1898,-134.601 333.2792,-141.5415"/>
<text text-anchor="middle" x="320.4931" y="-143.8" font-family="Times,serif" font-size="14.00" fill="#000000">c</text>
</g>
</g>
</svg>
